# xmcd CD database file
#
# Track frame offsets:
#	150
#	23460
#	46462
#	74606
#	92155
#	111762
#	129121
#	148869
#	182202
#	225811
#	246928
#	278118
#	303742
#	324621
#
# Disc length: 4624 seconds
#
# Revision: 0
# Processed by: cddbd v1.5.2PL0 Copyright (c) Steve Scherf et al.
# Submitted via: CDex 1.70beta2
#
DISCID=c3120e0e
DTITLE=Kirk, Roland - Kirk's Work - Oh Yeah
DYEAR=1962
DGENRE=Jazz
TTITLE0=Three For Dizzy
TTITLE1=Makin' Whoopee
TTITLE2=Funk Underneath
TTITLE3=Kirk's Work
TTITLE4=Doin' The Sixty Eight
TTITLE5=Too Late Now
TTITLE6=Skaters Waltz
TTITLE7=Hog Calling Blues
TTITLE8=Devil Women
TTITLE9=Wham Bam Thank You Ma'am
TTITLE10=Ecclusiastics
TTITLE11=Oh Lord Don't Let them Drop That Atomic Bomb
TTITLE12=Eat That Chicken
TTITLE13=Passions Of A Man
EXTD=YEAR: 1962
EXTT0=
EXTT1=
EXTT2=
EXTT3=
EXTT4=
EXTT5=
EXTT6=
EXTT7=
EXTT8=
EXTT9=
EXTT10=
EXTT11=
EXTT12=
EXTT13=
PLAYORDER=
